<?xml version="1.0" encoding="UTF-8"?>
<svg id="Layer_2" data-name="Layer 2" xmlns="http://www.w3.org/2000/svg" viewBox="0 0 97.5 97.5">
  <defs>
    <style>
      .cls-1, .cls-2, .cls-3 {
        stroke: #231f20;
        stroke-miterlimit: 10;
      }

      .cls-1, .cls-3 {
        fill: #fff;
      }

      .cls-4 {
        stroke-width: 0px;
      }

      .cls-2 {
        fill: none;
      }

      .cls-2, .cls-3 {
        fill-rule: evenodd;
      }
    </style>
  </defs>
  <g id="Layer_1-2" data-name="Layer 1">
    <g>
      <g>
        <circle class="cls-1" cx="48.75" cy="48.75" r="48.25"/>
        <path class="cls-2" d="m50.64,8.84c7.84,1.26,43.04,9.74,38.37,48"/>
        <path class="cls-3" d="m9.16,61.7c4.22,21.54,26.74,26.4,26.74,26.4"/>
      </g>
      <path class="cls-4" d="m66.61,23.99l-.55.28h0c.63,1.13.8,2.62.41,4.12-.65-.48-1.11-1.21-1.33-2.06l-.55.28h0c-.22.82-.5,1.64-.86,2.44-.35.79-.77,1.55-1.23,2.25v.02s.15.59.15.59c.55-.28,1.17-.44,1.84-.44.22,0,.44.02.65.05-.56,1.33-1.88,2.27-3.41,2.27-1.44,0-2.69-.82-3.3-2.03.44-.2.77-.6.88-1.1.16-.71-.29-1.03-.14-1.74.16-.71.85-1.15,1.55-.99.55.12.94.57,1.01,1.09.38-.23.67-.6.77-1.07.2-.9-.37-1.79-1.27-1.99-.57-.13-1.14.06-1.53.44.23-.35.41-.75.5-1.19.24-1.07-.05-2.14-.68-2.97-.93.49-1.63,1.34-1.87,2.41-.1.44-.1.87-.04,1.29-.19-.51-.63-.92-1.2-1.04-.9-.2-1.79.37-1.98,1.27-.1.46,0,.93.25,1.29.29-.44.83-.68,1.37-.56.7.15,1.15.85.99,1.56-.16.7-.7.81-.85,1.52-.09.41-.01.83.19,1.17,0,0,.03.05.09.14-.73.57-1.65.91-2.64.91-2.38,0-4.3-1.93-4.3-4.31v-.35c1.36.21,2.56.9,3.44,1.87l.46-.46v-5.16l-.47-.47c-.88.98-2.08,1.65-3.43,1.87h0c0-1.88,1.28-3.45,3.01-3.91l-.47-.48c-1.28-.09-2.56-.14-3.86-.14s-2.59.05-3.86.14l-.48.48c1.73.45,3.01,2.03,3.01,3.9h0c-1.35-.21-2.55-.89-3.43-1.86l-.47.47v5.16l.46.46c.88-.98,2.08-1.66,3.44-1.87v.35c0,2.38-1.93,4.31-4.31,4.31-.99,0-1.9-.33-2.62-.89.04-.09.07-.15.07-.15.2-.34.28-.75.19-1.17-.15-.71-.7-.82-.85-1.52-.16-.71.29-1.4.99-1.56.55-.12,1.09.12,1.37.56.25-.37.35-.83.25-1.29-.2-.9-1.09-1.47-1.99-1.27-.57.13-1.01.53-1.2,1.04.06-.42.06-.85-.04-1.29-.24-1.07-.94-1.92-1.86-2.41-.64.83-.92,1.9-.68,2.97.1.44.27.84.5,1.19-.39-.38-.95-.57-1.53-.44-.9.2-1.47,1.09-1.27,1.99.1.47.39.84.77,1.07.07-.52.47-.97,1.01-1.09.7-.16,1.4.29,1.55.99.15.7-.29,1.03-.14,1.74.11.5.45.9.88,1.1-.61,1.21-1.86,2.03-3.3,2.03-1.53,0-2.85-.94-3.41-2.27.21-.03.43-.05.65-.05.66,0,1.29.16,1.84.44l.15-.59v-.02c-.47-.71-.88-1.46-1.23-2.25-.36-.8-.64-1.62-.86-2.44h0s-.55-.29-.55-.29c-.22.85-.67,1.57-1.32,2.06-.39-1.5-.23-2.99.41-4.11h0s-.55-.29-.55-.29c-.96.33-2.25.86-3.19,1.28l5.52,12.42c4.91-2.19,10.35-3.41,16.07-3.41s11.16,1.22,16.07,3.41l5.52-12.42c-.94-.42-2.23-.95-3.19-1.28m2.52,26.41v1.79c1.44.34,2.41,1.58,2.41,3.13s-.97,2.79-2.41,3.13v1.8c1.44.34,2.41,1.58,2.41,3.13s-.97,2.79-2.41,3.13v1.79c1.44.34,2.41,1.58,2.41,3.13,0,1.83-1.35,3.22-3.22,3.22s-3.22-1.4-3.22-3.22c0-1.55.97-2.8,2.41-3.13v-1.79c-1.45-.34-2.41-1.58-2.41-3.13s.97-2.79,2.41-3.13v-1.79c-1.45-.34-2.41-1.58-2.41-3.13s.97-2.79,2.41-3.13v-1.79c-1.45-.34-2.41-1.58-2.41-3.13s.97-2.79,2.41-3.13v-1.79c-1.19-.28-2.05-1.16-2.32-2.33h-1.7v34.66h-.37c-.83-2.5-2.07-4.8-3.65-6.84v-.42h1.61v-4.84h-4.02v4.84h.81v.44c-1.04,2.08-1.81,4.38-2.26,6.81h-.31c-.44-2.44-1.21-4.73-2.26-6.81v-.44h.81v-4.84h-4.02v4.84h.8v.44c-1.04,2.08-1.81,4.38-2.25,6.81h-.31c-.44-2.44-1.21-4.73-2.26-6.81v-.44h.8v-4.84h-4.02v4.84h.8v.44c-1.04,2.08-1.82,4.38-2.26,6.81h-.31c-.44-2.44-1.21-4.73-2.25-6.81v-.44h.8v-4.84h-4.02v4.84h1.61v.42c-1.58,2.03-2.82,4.34-3.65,6.84h-.37v-34.66h-1.7c-.27,1.16-1.14,2.05-2.32,2.33v1.8c1.44.34,2.41,1.58,2.41,3.13s-.97,2.79-2.41,3.13v1.79c1.44.34,2.41,1.58,2.41,3.13s-.97,2.79-2.41,3.13v1.8c1.44.34,2.41,1.58,2.41,3.13s-.97,2.79-2.41,3.13v1.79c1.44.34,2.41,1.58,2.41,3.13,0,1.83-1.35,3.22-3.22,3.22s-3.22-1.4-3.22-3.22c0-1.55.97-2.8,2.41-3.13v-1.79c-1.45-.34-2.41-1.58-2.41-3.13s.97-2.79,2.41-3.13v-1.79c-1.45-.34-2.41-1.58-2.41-3.13s.97-2.79,2.41-3.13v-1.79c-1.45-.34-2.41-1.58-2.41-3.13s.97-2.79,2.41-3.13v-1.79c-1.45-.34-2.41-1.58-2.41-3.13,0-1.83,1.34-3.22,3.22-3.22,1.59,0,2.79,1,3.13,2.42h33.98c.33-1.42,1.53-2.42,3.13-2.42,1.87,0,3.22,1.4,3.22,3.22,0,1.55-.97,2.79-2.41,3.13v1.8c1.44.34,2.41,1.58,2.41,3.13s-.97,2.79-2.41,3.13m-40.25,19.61c-.07.37-.38.63-.79.63s-.71-.26-.79-.63c-.51.25-.82.77-.82,1.44,0,.96.65,1.61,1.61,1.61s1.61-.65,1.61-1.61c0-.67-.31-1.18-.82-1.44m0-8.06c-.07.37-.38.63-.79.63s-.71-.26-.79-.63c-.51.26-.82.77-.82,1.44s.31,1.19.82,1.44c.07-.37.38-.63.79-.63s.71.26.79.63c.51-.26.82-.77.82-1.44s-.31-1.18-.82-1.44m0-8.06c-.07.37-.38.63-.79.63s-.71-.26-.79-.63c-.51.26-.82.77-.82,1.44s.31,1.18.82,1.44c.07-.37.38-.63.79-.63s.71.26.79.63c.51-.26.82-.77.82-1.44s-.31-1.18-.82-1.44m.82-14.68c0-.96-.65-1.61-1.61-1.61s-1.61.65-1.61,1.61c0,.67.31,1.18.82,1.44.07-.37.38-.63.79-.63s.71.26.79.63c.51-.25.82-.77.82-1.44m9.65,16.12h-4.02v4.84h4.02v-4.84Zm0-7.25h-4.02v4.83h4.02v-4.83Zm0-7.25h-4.02v4.84h4.02v-4.84Zm7.24,14.51h-4.02v4.84h4.02v-4.84Zm0-7.25h-4.02v4.83h4.02v-4.83Zm0-7.25h-4.02v4.84h4.02v-4.84Zm7.24,14.51h-4.02v4.84h4.02v-4.84Zm0-7.25h-4.02v4.83h4.02v-4.83Zm0-7.25h-4.02v4.84h4.02v-4.84Zm7.24,14.51h-4.02v4.84h4.02v-4.84Zm0-7.25h-4.02v4.83h4.02v-4.83Zm0-7.25h-4.02v4.84h4.02v-4.84Zm6.45-.17c.07-.37.38-.63.79-.63s.71.26.79.63c.51-.25.82-.77.82-1.44,0-.96-.65-1.61-1.61-1.61s-1.61.65-1.61,1.61c0,.67.31,1.18.82,1.44m1.58,29.36c-.07.37-.38.63-.79.63s-.71-.26-.79-.63c-.51.25-.82.77-.82,1.44,0,.96.65,1.61,1.61,1.61s1.61-.65,1.61-1.61c0-.67-.31-1.18-.82-1.44m0-8.06c-.07.37-.38.63-.79.63s-.71-.26-.79-.63c-.51.26-.82.77-.82,1.44s.31,1.19.82,1.44c.07-.37.38-.63.79-.63s.71.26.79.63c.51-.26.82-.77.82-1.44s-.31-1.18-.82-1.44m0-8.06c-.07.37-.38.63-.79.63s-.71-.26-.79-.63c-.51.26-.82.77-.82,1.44s.31,1.18.82,1.44c.07-.37.38-.63.79-.63s.71.26.79.63c.51-.26.82-.77.82-1.44s-.31-1.18-.82-1.44m-40.23-8.06c-.07.37-.38.63-.79.63s-.71-.26-.79-.63c-.51.26-.82.77-.82,1.44s.31,1.18.82,1.44c.07-.37.38-.63.79-.63s.71.26.79.63c.51-.25.82-.77.82-1.44s-.31-1.18-.82-1.44m40.23,0c-.07.37-.38.63-.79.63s-.71-.26-.79-.63c-.51.26-.82.77-.82,1.44s.31,1.18.82,1.44c.07-.37.38-.63.79-.63s.71.26.79.63c.51-.25.82-.77.82-1.44s-.31-1.18-.82-1.44"/>
    </g>
  </g>
</svg>