<?xml version="1.0" encoding="UTF-8"?>
<svg id="Layer_2" data-name="Layer 2" xmlns="http://www.w3.org/2000/svg" viewBox="0 0 97.5 97.5">
  <defs>
    <style>
      .cls-1, .cls-2, .cls-3 {
        stroke: #231f20;
        stroke-miterlimit: 10;
      }

      .cls-1, .cls-3 {
        fill: #fff;
      }

      .cls-4 {
        fill: #010101;
        stroke-width: 0px;
      }

      .cls-2 {
        fill: none;
      }

      .cls-2, .cls-3 {
        fill-rule: evenodd;
      }
    </style>
  </defs>
  <g id="Layer_1-2" data-name="Layer 1">
    <g>
      <g>
        <circle class="cls-1" cx="48.75" cy="48.75" r="48.25"/>
        <path class="cls-2" d="m19.09,75.52c-4.63-6.45-23.41-37.41,7.03-61.05"/>
        <path class="cls-3" d="m85.83,67.72c12.32-18.17-.11-37.57-.11-37.57"/>
      </g>
      <g>
        <path class="cls-4" d="m58.68,42.4c-1.76-.29-5.81-.32-9.22.42-.22-.14-.44-.29-.65-.43-.66-.4-1.31-.75-1.95-1-.62-.25-1.24-.42-1.89-.45h0c-.97-.08-1.92-.12-2.79-.12-1.32,0-2.45.08-3.29.21h0c-.12.02-.24.03-.38.03-.72,0-1.72-.33-2.63-.83-.61-.33-1.37-.15-1.78.41l-9.96,13.73c-.34.47-.35,1.1-.03,1.58.25.38.46.77.6,1.16.2.56.49,1.06.83,1.55.34.49.72.96,1.12,1.42l.16.15s.72.59,1.86,1.53c-.3.43-.46.93-.47,1.47,0,.7.26,1.37.75,1.88.5.51,1.17.79,1.89.79.5,0,.98-.14,1.4-.41-.28.42-.43.91-.44,1.43,0,.7.26,1.37.75,1.87.5.51,1.17.8,1.89.8.56,0,1.1-.18,1.55-.51-.82,1.03-.77,2.52.17,3.49.5.51,1.17.79,1.89.79h0c.69,0,1.35-.27,1.85-.76l.49-.48c-.2.37-.33.79-.33,1.23,0,.71.26,1.37.75,1.88.5.51,1.17.79,1.89.79s1.35-.27,1.85-.76l.3-.3c.15.12.28.22.4.31.09.07.17.13.24.18l.1.07.15.09c.56.31,1.09.44,1.52.53.21.04.39.07.53.09l.16.02h.05s.02,0,.02,0h.01s.01,0,.01,0h.02s0,0,.09,0h.1c.93-.07,1.81-.39,2.53-.94.29-.22.54-.49.76-.78.45.14.92.23,1.41.23,1.99,0,3.67-1.27,4.31-3.04.07,0,.14,0,.22-.03.25.05.51.08.77.08,1.98,0,3.65-1.25,4.31-2.99,0,0,0,0,.01,0h.16c2.55.01,4.62-2.05,4.62-4.6,0-.71-.1-1.49-.37-2.31,1.75-1.55,4.32-3.94,4.78-5.23.22-.62,1.48-2.12,1.84-2.63l-9.88-13.63c-1.26.71-3.71,2.23-5.06,2Zm5.91,21.79c0,1.02-.83,1.84-1.85,1.85-.25,0-.49-.05-.71-.14-.02,0-.04-.01-.07-.02l-1.71-2.08c-.43-.5-1.19-.56-1.69-.12-.5.43-.56,1.19-.12,1.69l1.66,2.02c-.11.92-.88,1.64-1.82,1.64-.45,0-.85-.16-1.18-.43l-1.64-2c-.43-.5-1.19-.56-1.69-.12-.5.43-.56,1.19-.12,1.69l1.14,1.43c0,.09-.01.18,0,.27.02.11.03.21.03.31,0,1.02-.83,1.84-1.85,1.85-.27,0-.51-.06-.74-.16l-2-2.11c-.48-.45-1.24-.43-1.7.05-.46.48-.43,1.24.05,1.7l.94,1.1c-.09.2-.22.38-.41.53-.24.19-.58.32-.96.36-.11-.02-.26-.04-.44-.08-.22-.05-.46-.13-.58-.2-.04-.03-.15-.11-.31-.23-.09-.07-.19-.15-.3-.24.2-.85-.02-1.79-.67-2.46-.5-.51-1.17-.79-1.89-.79-.4,0-.79.1-1.14.27h-.01s.01-.02.01-.02c.5-.49.79-1.15.79-1.86,0-.71-.26-1.37-.75-1.88-.5-.51-1.17-.79-1.89-.79-.56,0-1.09.18-1.54.51.36-.46.57-1.01.58-1.6,0-.71-.26-1.37-.75-1.88-.5-.51-1.17-.8-1.89-.8s-1.35.27-1.85.76l-.45.44c.55-1,.42-2.27-.41-3.12-.5-.51-1.17-.79-1.89-.79s-1.35.27-1.85.76l-.29.3c-.21-.17-.41-.34-.6-.49-.68-.56-1.15-.95-1.34-1.1-.32-.36-.61-.73-.84-1.07-.25-.36-.42-.69-.5-.92-.12-.33-.25-.63-.41-.92l8.75-12.07c.87.36,1.81.63,2.83.64.27,0,.55-.02.83-.07h0c.58-.1,1.62-.18,2.83-.18.79,0,1.67.03,2.56.1h.06c.22,0,.58.09,1.03.27l.1.05c-3.74,1.69-9.04,4.94-10.78,5.52-1.99.66-2.16,3.31,2.32,3.81,4.48.5,8.45-2.32,9.45-2.82.71-.36,5.25.08,7.76.35,1.11,1.09,2.08,2.11,2.79,2.87l5.52,6.74.02.03c.71.82,1.09,1.48,1.31,2.05.22.57.28,1.06.28,1.62Z"/>
        <path class="cls-4" d="m84.69,50.1l-13.33-18.38c-.32-.45-.94-.54-1.39-.22l-5.9,4.28c-.44.32-.54.94-.22,1.39l13.33,18.38c.32.44.94.54,1.39.22l5.9-4.28c.44-.32.54-.94.22-1.39Zm-4.53,1.65c-.74.54-1.78.37-2.32-.37-.54-.74-.37-1.78.37-2.31.74-.54,1.78-.37,2.31.37.54.74.37,1.78-.37,2.32Z"/>
        <path class="cls-4" d="m34.06,35.78l-5.9-4.28c-.44-.32-1.07-.22-1.39.22l-13.33,18.38c-.32.44-.22,1.07.22,1.39l5.9,4.28c.44.32,1.07.22,1.39-.22l13.33-18.38c.32-.44.22-1.07-.22-1.39Zm-3.95,2.05c-.54.74-1.57.91-2.31.37-.74-.54-.91-1.57-.37-2.31.54-.74,1.57-.91,2.31-.37.74.54.91,1.57.37,2.31Z"/>
      </g>
    </g>
  </g>
</svg>