<?xml version="1.0" encoding="UTF-8"?>
<svg id="Layer_2" data-name="Layer 2" xmlns="http://www.w3.org/2000/svg" viewBox="0 0 97.5 97.5">
  <defs>
    <style>
      .cls-1, .cls-2, .cls-3 {
        stroke: #231f20;
        stroke-miterlimit: 10;
      }

      .cls-1, .cls-3 {
        fill: #fff;
      }

      .cls-4 {
        fill: #010101;
        stroke-width: 0px;
      }

      .cls-2 {
        fill: none;
      }

      .cls-2, .cls-3 {
        fill-rule: evenodd;
      }
    </style>
  </defs>
  <g id="Layer_1-2" data-name="Layer 1">
    <g>
      <g>
        <circle class="cls-1" cx="48.75" cy="48.75" r="48.25"/>
        <path class="cls-2" d="m8.84,46.86c1.26-7.84,9.74-43.04,48-38.37"/>
        <path class="cls-3" d="m61.7,88.34c21.54-4.22,26.4-26.74,26.4-26.74"/>
      </g>
      <path class="cls-4" d="m68.05,64.25c-.39-.55-.94-.88-1.65-.99-.71-.17-1.37-.08-1.98.25-.6.39-.96.96-1.07,1.73-.6,3.18-1.21,5.3-1.81,6.34-.88,1.43-2.31,2.14-4.28,2.14-1.32-.05-2.69-.46-4.12-1.23-.82-.44-2.11-1.32-3.87-2.63-.82-.6-1.46-1.04-1.89-1.32-.71-.55-1.37-.99-1.98-1.32.11-2.25,0-4.99-.33-8.23-.33-2.52-.77-5.35-1.32-8.48h18.77v-4.03h-19.51l-.08-.25c-.44-2.25-.74-4.06-.91-5.43-.28-2.19-.41-4.44-.41-6.75,0-3.51,1.1-6.5,3.29-8.97,2.19-2.47,4.86-3.7,7.98-3.7,2.25,0,4,.52,5.27,1.56,1.65,1.32,2.47,3.57,2.47,6.75v3.29c0,.99.3,1.76.91,2.31.55.55,1.23.85,2.06.91.82,0,1.51-.27,2.06-.82.66-.55.99-1.32.99-2.31v-3.37c0-3.84-1.29-6.75-3.87-8.72-2.36-1.86-5.49-2.8-9.38-2.8-4.99,0-9,1.43-12.02,4.28-3.46,3.24-5.18,8.07-5.18,14.48,0,1.76.08,3.51.25,5.27.17.99.38,2.31.66,3.95l.08.33h-10.37v4.03h11.28c.6,2.25,1.18,4.83,1.73,7.74.49,2.91.82,5.18.99,6.83-.93-.33-1.89-.58-2.88-.74-1.04-.11-2.11-.17-3.21-.17-2.63,0-4.69.69-6.17,2.06-1.43,1.32-2.14,3.13-2.14,5.43s.74,4.12,2.22,5.43c1.32,1.15,3.04,1.75,5.18,1.81,2.52,0,4.77-.71,6.75-2.14,1.75-1.26,3.04-2.91,3.87-4.94l.91.74c2.31,1.92,4.14,3.29,5.51,4.12,2.41,1.43,4.75,2.14,6.99,2.14,2.52,0,4.75-1.04,6.67-3.13,2.08-2.19,3.43-5.24,4.03-9.14.11-.93-.06-1.7-.49-2.31Zm-29.79,9.71c-1.04,1.04-2.25,1.56-3.62,1.56s-2.36-.33-3.13-.99c-.82-.71-1.23-1.78-1.23-3.21,0-1.04.33-1.94.99-2.72.82-.82,1.92-1.26,3.29-1.32,1.04,0,2.08.14,3.13.41.99.28,1.95.69,2.88,1.23-.28,2.14-1.05,3.82-2.31,5.02Z"/>
    </g>
  </g>
</svg>