<?xml version="1.0" encoding="UTF-8"?>
<svg id="Layer_2" data-name="Layer 2" xmlns="http://www.w3.org/2000/svg" viewBox="0 0 322.52 268.18">
  <defs>
    <style>
      .cls-1 {
        fill: none;
      }

      .cls-1, .cls-2 {
        stroke: #231f20;
        stroke-miterlimit: 10;
      }

      .cls-2 {
        fill: #fff;
      }

      .cls-3 {
        fill: #010101;
      }

      .cls-3, .cls-4 {
        stroke-width: 0px;
      }
    </style>
  </defs>
  <g id="Layer_1-2" data-name="Layer 1">
    <g>
      <g>
        <circle class="cls-2" cx="273.77" cy="48.75" r="48.25"/>
        <path class="cls-4" d="m297.02,18.82l-.69.36h0c.8,1.43,1.01,3.31.52,5.2-.82-.61-1.4-1.53-1.68-2.6l-.69.36h0c-.27,1.04-.64,2.07-1.09,3.08-.45,1-.97,1.96-1.55,2.85v.02s.19.74.19.74c.7-.36,1.48-.56,2.32-.56.28,0,.56.02.83.07-.71,1.68-2.37,2.87-4.31,2.87-1.82,0-3.4-1.04-4.17-2.57.55-.26.98-.75,1.12-1.39.2-.89-.37-1.31-.17-2.2.2-.89,1.07-1.45,1.96-1.26.69.15,1.18.71,1.28,1.38.48-.29.84-.76.97-1.35.25-1.14-.47-2.26-1.6-2.51-.72-.16-1.44.08-1.93.56.3-.45.51-.95.63-1.5.3-1.35-.06-2.71-.86-3.76-1.17.62-2.06,1.7-2.36,3.05-.12.55-.13,1.1-.05,1.63-.24-.64-.79-1.16-1.52-1.32-1.14-.25-2.26.47-2.51,1.61-.13.59,0,1.17.31,1.63.37-.56,1.05-.87,1.74-.71.89.19,1.45,1.07,1.26,1.97-.2.89-.88,1.03-1.08,1.92-.12.52-.01,1.05.24,1.47,0,0,.04.06.11.17-.92.72-2.08,1.15-3.34,1.15-3,0-5.44-2.44-5.44-5.45v-.44c1.71.27,3.24,1.13,4.35,2.37l.58-.58v-6.52l-.59-.59c-1.11,1.23-2.63,2.09-4.34,2.36h0c0-2.38,1.61-4.37,3.8-4.94l-.6-.6c-1.61-.12-3.24-.17-4.88-.17s-3.27.06-4.88.17l-.6.6c2.19.57,3.8,2.56,3.8,4.93h0c-1.71-.27-3.23-1.12-4.34-2.36l-.59.59v6.52l.58.58c1.11-1.24,2.63-2.1,4.35-2.37v.44c0,3.01-2.44,5.45-5.44,5.45-1.25,0-2.4-.42-3.32-1.13.05-.12.09-.19.09-.19.26-.43.36-.95.24-1.47-.19-.89-.88-1.03-1.08-1.92-.2-.89.37-1.77,1.25-1.97.69-.15,1.37.15,1.74.71.31-.46.44-1.05.31-1.63-.25-1.14-1.38-1.86-2.51-1.61-.72.16-1.27.67-1.52,1.32.08-.53.07-1.08-.05-1.63-.3-1.35-1.19-2.43-2.36-3.05-.8,1.05-1.16,2.4-.86,3.76.12.55.34,1.06.64,1.5-.49-.48-1.21-.72-1.93-.56-1.14.25-1.86,1.38-1.6,2.51.13.59.49,1.07.97,1.35.09-.66.59-1.23,1.28-1.38.89-.2,1.77.37,1.96,1.26.19.89-.37,1.31-.17,2.2.14.64.57,1.14,1.12,1.39-.77,1.52-2.35,2.57-4.17,2.57-1.94,0-3.61-1.18-4.31-2.87.27-.04.55-.07.83-.07.84,0,1.63.2,2.32.56l.19-.74v-.02c-.59-.89-1.11-1.85-1.56-2.85-.45-1.01-.81-2.04-1.09-3.08h0s-.7-.37-.7-.37c-.28,1.07-.85,1.99-1.67,2.6-.5-1.89-.28-3.77.51-5.2h0s-.69-.36-.69-.36c-1.21.42-2.85,1.08-4.04,1.61l6.98,15.7c6.21-2.77,13.08-4.31,20.32-4.31s14.11,1.54,20.32,4.31l6.97-15.7c-1.19-.53-2.82-1.2-4.04-1.61m3.19,33.38v2.27c1.82.43,3.05,2,3.05,3.96s-1.23,3.53-3.05,3.96v2.27c1.82.43,3.05,2,3.05,3.96s-1.23,3.53-3.05,3.96v2.27c1.82.43,3.05,2,3.05,3.96,0,2.31-1.7,4.08-4.07,4.08s-4.07-1.77-4.07-4.08c0-1.96,1.22-3.54,3.05-3.96v-2.27c-1.83-.43-3.05-2-3.05-3.96s1.22-3.53,3.05-3.96v-2.26c-1.83-.43-3.05-2-3.05-3.96s1.22-3.53,3.05-3.96v-2.27c-1.83-.42-3.05-2-3.05-3.96s1.22-3.53,3.05-3.96v-2.27c-1.5-.35-2.59-1.47-2.93-2.94h-2.15v43.81h-.47c-1.05-3.16-2.62-6.07-4.62-8.64v-.53h2.03v-6.11h-5.09v6.11h1.02v.56c-1.32,2.63-2.29,5.53-2.85,8.61h-.4c-.56-3.08-1.53-5.98-2.85-8.61v-.56h1.02v-6.11h-5.09v6.11h1.02v.56c-1.32,2.63-2.29,5.53-2.85,8.61h-.4c-.56-3.08-1.53-5.98-2.85-8.61v-.56h1.02v-6.11h-5.08v6.11h1.02v.56c-1.32,2.63-2.3,5.53-2.85,8.61h-.4c-.56-3.08-1.53-5.98-2.85-8.61v-.56h1.02v-6.11h-5.09v6.11h2.03v.53c-2,2.57-3.57,5.49-4.62,8.64h-.47v-43.81h-2.15c-.35,1.47-1.44,2.59-2.94,2.94v2.27c1.82.43,3.05,2,3.05,3.96s-1.23,3.53-3.05,3.96v2.27c1.82.43,3.05,2,3.05,3.96s-1.23,3.53-3.05,3.96v2.27c1.82.43,3.05,2,3.05,3.96s-1.23,3.53-3.05,3.96v2.27c1.82.43,3.05,2,3.05,3.96,0,2.31-1.7,4.08-4.07,4.08s-4.07-1.77-4.07-4.08c0-1.96,1.23-3.54,3.05-3.96v-2.27c-1.83-.43-3.05-2-3.05-3.96s1.23-3.53,3.05-3.96v-2.26c-1.83-.43-3.05-2-3.05-3.96s1.23-3.53,3.05-3.96v-2.27c-1.83-.42-3.05-2-3.05-3.96s1.23-3.53,3.05-3.96v-2.27c-1.83-.43-3.05-2-3.05-3.96,0-2.31,1.69-4.08,4.07-4.08,2,0,3.53,1.27,3.95,3.05h42.95c.42-1.79,1.94-3.05,3.95-3.05,2.37,0,4.07,1.77,4.07,4.08,0,1.96-1.23,3.53-3.05,3.96v2.27c1.82.43,3.05,2,3.05,3.96s-1.23,3.53-3.05,3.96m-50.88,24.79c-.09.46-.48.8-1,.8s-.9-.33-.99-.8c-.64.32-1.04.97-1.04,1.82,0,1.22.82,2.04,2.04,2.04s2.03-.82,2.03-2.04c0-.84-.39-1.5-1.04-1.82m0-10.19c-.09.46-.48.8-1,.8s-.9-.33-.99-.8c-.64.32-1.04.97-1.04,1.82s.39,1.5,1.04,1.82c.09-.47.48-.8.99-.8s.9.33,1,.8c.64-.32,1.04-.98,1.04-1.82s-.39-1.49-1.04-1.82m0-10.19c-.09.46-.48.8-1,.8s-.9-.33-.99-.8c-.64.32-1.04.97-1.04,1.82s.39,1.5,1.04,1.82c.09-.46.48-.8.99-.8s.9.33,1,.8c.64-.32,1.04-.97,1.04-1.82s-.39-1.5-1.04-1.82m1.04-18.56c0-1.22-.82-2.04-2.03-2.04s-2.04.82-2.04,2.04c0,.84.39,1.5,1.04,1.82.09-.46.48-.8.99-.8s.9.33,1,.8c.64-.32,1.04-.97,1.04-1.82m12.21,20.38h-5.09v6.11h5.09v-6.11Zm0-9.17h-5.09v6.11h5.09v-6.11Zm0-9.17h-5.09v6.11h5.09v-6.11Zm9.15,18.34h-5.09v6.11h5.09v-6.11Zm0-9.17h-5.09v6.11h5.09v-6.11Zm0-9.17h-5.09v6.11h5.09v-6.11Zm9.16,18.34h-5.09v6.11h5.09v-6.11Zm0-9.17h-5.09v6.11h5.09v-6.11Zm0-9.17h-5.09v6.11h5.09v-6.11Zm9.15,18.34h-5.09v6.11h5.09v-6.11Zm0-9.17h-5.09v6.11h5.09v-6.11Zm0-9.17h-5.09v6.11h5.09v-6.11Zm8.16-.22c.09-.46.48-.8,1-.8s.9.33,1,.8c.64-.32,1.04-.97,1.04-1.82,0-1.22-.82-2.04-2.03-2.04s-2.03.82-2.03,2.04c0,.84.39,1.5,1.04,1.82m1.99,37.12c-.09.46-.48.8-1,.8s-.9-.33-1-.8c-.64.32-1.04.97-1.04,1.82,0,1.22.82,2.04,2.03,2.04s2.03-.82,2.03-2.04c0-.84-.39-1.5-1.04-1.82m0-10.19c-.09.46-.48.8-1,.8s-.9-.33-1-.8c-.64.32-1.04.97-1.04,1.82s.39,1.5,1.04,1.82c.09-.47.48-.8,1-.8s.9.33,1,.8c.64-.32,1.04-.98,1.04-1.82s-.39-1.49-1.04-1.82m0-10.19c-.09.46-.48.8-1,.8s-.9-.33-1-.8c-.64.32-1.04.97-1.04,1.82s.39,1.5,1.04,1.82c.09-.46.48-.8,1-.8s.9.33,1,.8c.64-.32,1.04-.97,1.04-1.82s-.39-1.5-1.04-1.82m-50.86-10.19c-.09.47-.48.8-1,.8s-.9-.33-.99-.8c-.64.32-1.04.97-1.04,1.82s.39,1.5,1.04,1.82c.09-.46.48-.8.99-.8s.9.33,1,.8c.64-.32,1.04-.97,1.04-1.82s-.39-1.5-1.04-1.82m50.86,0c-.09.47-.48.8-1,.8s-.9-.33-1-.8c-.64.32-1.04.97-1.04,1.82s.39,1.5,1.04,1.82c.09-.46.48-.8,1-.8s.9.33,1,.8c.64-.32,1.04-.97,1.04-1.82s-.39-1.5-1.04-1.82"/>
      </g>
      <g>
        <circle class="cls-2" cx="48.75" cy="100.57" r="48.25"/>
        <path class="cls-3" d="m68.05,116.07c-.39-.55-.94-.88-1.65-.99-.71-.17-1.37-.08-1.98.25-.6.39-.96.96-1.07,1.73-.6,3.18-1.21,5.3-1.81,6.34-.88,1.43-2.31,2.14-4.28,2.14-1.32-.05-2.69-.46-4.12-1.23-.82-.44-2.11-1.32-3.87-2.63-.82-.6-1.46-1.04-1.89-1.32-.71-.55-1.37-.99-1.98-1.32.11-2.25,0-4.99-.33-8.23-.33-2.52-.77-5.35-1.32-8.48h18.77v-4.03h-19.51l-.08-.25c-.44-2.25-.74-4.06-.91-5.43-.28-2.19-.41-4.44-.41-6.75,0-3.51,1.1-6.5,3.29-8.97,2.19-2.47,4.86-3.7,7.98-3.7,2.25,0,4,.52,5.27,1.56,1.65,1.32,2.47,3.57,2.47,6.75v3.29c0,.99.3,1.76.91,2.31.55.55,1.23.85,2.06.91.82,0,1.51-.27,2.06-.82.66-.55.99-1.32.99-2.31v-3.37c0-3.84-1.29-6.75-3.87-8.72-2.36-1.86-5.49-2.8-9.38-2.8-4.99,0-9,1.43-12.02,4.28-3.46,3.24-5.18,8.07-5.18,14.48,0,1.76.08,3.51.25,5.27.17.99.38,2.31.66,3.95l.08.33h-10.37v4.03h11.28c.6,2.25,1.18,4.83,1.73,7.74.49,2.91.82,5.18.99,6.83-.93-.33-1.89-.58-2.88-.74-1.04-.11-2.11-.17-3.21-.17-2.63,0-4.69.69-6.17,2.06-1.43,1.32-2.14,3.13-2.14,5.43s.74,4.12,2.22,5.43c1.32,1.15,3.04,1.75,5.18,1.81,2.52,0,4.77-.71,6.75-2.14,1.75-1.26,3.04-2.91,3.87-4.94l.91.74c2.31,1.92,4.14,3.29,5.51,4.12,2.41,1.43,4.75,2.14,6.99,2.14,2.52,0,4.75-1.04,6.67-3.13,2.08-2.19,3.43-5.24,4.03-9.14.11-.93-.06-1.7-.49-2.31Zm-29.79,9.71c-1.04,1.04-2.25,1.56-3.62,1.56s-2.36-.33-3.13-.99c-.82-.71-1.23-1.78-1.23-3.21,0-1.04.33-1.94.99-2.72.82-.82,1.92-1.26,3.29-1.32,1.04,0,2.08.14,3.13.41.99.28,1.95.69,2.88,1.23-.28,2.14-1.05,3.82-2.31,5.02Z"/>
      </g>
      <g>
        <circle class="cls-2" cx="193.92" cy="219.43" r="48.25"/>
        <g>
          <path class="cls-3" d="m204.88,206.44c-2.01-.33-6.63-.37-10.52.48-.25-.16-.5-.33-.75-.49-.75-.46-1.49-.85-2.22-1.14-.71-.28-1.42-.48-2.16-.52h0c-1.11-.09-2.19-.13-3.18-.13-1.51,0-2.8.09-3.75.24h0c-.13.02-.28.03-.43.03-.82,0-1.96-.38-3-.95-.7-.37-1.56-.18-2.03.47l-11.36,15.67c-.39.53-.4,1.26-.04,1.81.29.43.53.88.69,1.33.23.63.56,1.21.94,1.77.38.56.82,1.1,1.28,1.61l.18.17s.82.67,2.12,1.75c-.34.49-.53,1.07-.53,1.68,0,.8.3,1.56.86,2.14.57.58,1.34.91,2.15.91.57,0,1.12-.16,1.6-.47-.32.48-.5,1.04-.5,1.63,0,.8.3,1.56.86,2.14.57.59,1.34.91,2.15.91.64,0,1.25-.21,1.76-.58-.93,1.17-.88,2.88.19,3.98.57.58,1.34.9,2.15.9h0c.79,0,1.54-.31,2.11-.86l.56-.55c-.23.43-.37.9-.38,1.4,0,.8.3,1.56.86,2.14.57.58,1.34.9,2.15.9s1.54-.3,2.12-.87l.34-.34c.17.13.32.25.45.35.1.08.19.14.27.2l.12.08.17.1c.64.35,1.25.5,1.73.61.24.05.45.08.6.11l.19.02h.06s.02,0,.02,0h.01s.02,0,.02,0h.02s0,0,.11,0h.11c1.06-.08,2.07-.45,2.89-1.08.33-.25.62-.56.87-.89.51.16,1.05.26,1.61.26,2.27,0,4.18-1.45,4.92-3.46.08,0,.16,0,.25-.03.29.05.58.09.88.09,2.25,0,4.16-1.42,4.91-3.41,0,0,.01,0,.02-.01l.18.02c2.91,0,5.27-2.36,5.27-5.27,0-.81-.11-1.7-.42-2.63,2-1.77,4.93-4.49,5.45-5.97.25-.71,1.69-2.42,2.1-3l-11.27-15.54c-1.44.81-4.23,2.54-5.77,2.29Zm6.74,24.86c0,1.16-.94,2.1-2.11,2.11-.29,0-.56-.06-.81-.16-.03-.01-.05-.01-.08-.02l-1.95-2.38c-.49-.57-1.36-.64-1.93-.14-.57.49-.64,1.36-.14,1.93l1.89,2.3c-.12,1.05-1,1.87-2.08,1.87-.51,0-.97-.18-1.34-.49l-1.87-2.29c-.49-.57-1.36-.64-1.93-.14-.57.49-.64,1.36-.14,1.93l1.31,1.63c0,.1-.01.2,0,.3.02.13.03.24.03.35,0,1.16-.94,2.1-2.11,2.11-.3,0-.58-.07-.84-.18l-2.28-2.4c-.55-.52-1.42-.49-1.94.06-.52.55-.49,1.42.06,1.94l1.07,1.26c-.11.23-.25.44-.47.61-.28.21-.66.36-1.1.41-.13-.02-.3-.05-.51-.1-.26-.06-.52-.15-.66-.23-.05-.04-.17-.13-.35-.27-.1-.08-.22-.17-.34-.27.23-.97-.02-2.04-.77-2.81-.57-.58-1.34-.91-2.15-.91-.46,0-.9.11-1.31.31h-.01s.01-.03.01-.03c.57-.56.9-1.32.91-2.12,0-.8-.3-1.56-.86-2.14-.57-.58-1.34-.91-2.15-.91-.64,0-1.24.21-1.76.58.41-.52.65-1.15.66-1.83,0-.8-.3-1.56-.86-2.14-.57-.59-1.34-.91-2.15-.91s-1.54.3-2.11.86l-.51.51c.63-1.14.48-2.59-.47-3.56-.57-.58-1.34-.91-2.15-.91s-1.54.3-2.11.86l-.34.34c-.24-.2-.47-.39-.68-.56-.78-.64-1.31-1.08-1.53-1.26-.36-.42-.7-.83-.96-1.22-.28-.41-.48-.79-.57-1.05-.13-.37-.29-.72-.46-1.05l9.99-13.77c.99.41,2.07.72,3.23.73.31,0,.63-.02.95-.08h0c.66-.11,1.85-.2,3.22-.2.91,0,1.9.04,2.92.12h.07c.25.01.67.1,1.17.3l.11.05c-4.27,1.93-10.31,5.63-12.3,6.3-2.27.76-2.46,3.78,2.65,4.35,5.11.57,9.64-2.65,10.78-3.21.81-.41,5.99.09,8.85.4,1.26,1.25,2.37,2.41,3.18,3.28l6.29,7.69.03.03c.81.93,1.24,1.69,1.49,2.34.25.65.32,1.21.32,1.85Z"/>
          <path class="cls-3" d="m234.56,215.22l-15.2-20.97c-.37-.51-1.08-.62-1.58-.25l-6.73,4.88c-.51.37-.62,1.08-.25,1.58l15.2,20.97c.37.51,1.08.62,1.58.25l6.74-4.88c.51-.37.62-1.08.25-1.58Zm-5.17,1.88c-.84.61-2.03.42-2.64-.42-.61-.84-.42-2.03.42-2.64.85-.61,2.03-.42,2.64.42.61.85.42,2.03-.42,2.64Z"/>
          <path class="cls-3" d="m176.8,198.88l-6.74-4.88c-.51-.37-1.22-.26-1.58.25l-15.21,20.97c-.37.51-.25,1.22.25,1.58l6.73,4.88c.51.37,1.22.25,1.58-.25l15.21-20.97c.37-.51.26-1.22-.25-1.58Zm-4.5,2.34c-.61.84-1.8,1.03-2.64.42-.85-.61-1.03-1.8-.42-2.64.61-.85,1.8-1.04,2.64-.42.85.61,1.03,1.79.42,2.64Z"/>
        </g>
      </g>
      <circle class="cls-2" cx="176.9" cy="119.11" r="8.72"/>
      <line class="cls-1" x1="97" y1="100.57" x2="168.18" y2="119.11"/>
      <line class="cls-1" x1="234.66" y1="76.99" x2="182.56" y2="112.47"/>
      <line class="cls-1" x1="176.9" y1="127.83" x2="185.63" y2="171.18"/>
    </g>
  </g>
</svg>